<?xml version="1.0" encoding="utf-8"?>
<!-- Generator: Adobe Illustrator 21.0.0, SVG Export Plug-In . SVG Version: 6.00 Build 0)  -->
<svg version="1.1" id="Слой_1" xmlns="http://www.w3.org/2000/svg" xmlns:xlink="http://www.w3.org/1999/xlink" x="0px" y="0px"
	 viewBox="0 0 111 118.5" style="enable-background:new 0 0 111 118.5;" xml:space="preserve">
<style type="text/css">
	.st0{fill:#FF9900;}
</style>
<path class="st0" d="M257.7,128.8c3.5,1.3,6,3.9,8.4,6.5c3.3,3.7,6.2,7.6,8.7,11.9c0.7,1.3,1.3,2.7,1.9,4c0.9,2.2,0.4,4.2-1.2,5.8
	c-1.1,1.1-2.4,2-3.7,2.9c-2.1,1.5-4.3,2.8-6.4,4.2c-2,1.4-2,1.5-1,3.7c2.2,4.5,5.2,8.5,8.6,12.2c4.6,5,9.8,9.4,15.9,12.6
	c0.6,0.3,1.3,0.5,1.9,0.9c0.6,0.3,1,0.2,1.4-0.3c0.9-1.1,1.8-2.2,2.6-3.4c1.3-1.9,2.4-3.9,3.7-5.7c0.7-1,1.6-2,2.6-2.8
	c1.5-1.3,3.2-1.5,5-0.7c1.9,0.8,3.9,1.7,5.7,2.8c4.8,2.9,9.2,6.3,13.1,10.4c0.9,0.9,1.6,2,2.4,3c1.6,2.1,1.6,4.3,0.7,6.7
	c-1.2,2.9-3,5.5-5.1,7.8c-2.3,2.5-4.8,4.7-7.9,6c-1.5,0.6-3,1-4.6,1c-7.7-0.1-15-2.1-21.8-5.3c-18.7-9-32.9-22.8-42.6-41.1
	c-3.3-6.2-5.5-12.7-6.4-19.7c-0.2-1.6-0.3-3.2-0.4-4.8c0-0.4,0-0.8,0-1.2c0.3-1.9,0.8-3.7,1.8-5.3c3.7-5.8,8.5-10.3,15.3-12.2
	C256.7,128.8,257.2,128.8,257.7,128.8z M309.9,213.9c1.2,0.2,2.6-0.2,4-0.9c4-2.3,6.9-5.7,9.3-9.7c1.2-2.1,0.9-3.7-0.7-5.4
	c-4.7-5-10.1-9.1-16.2-12.3c-2.3-1.2-2.6-1.1-4,1c-1.4,2.1-2.7,4.3-4.2,6.4c-0.9,1.3-1.9,2.6-3,3.7c-1.5,1.5-3.3,2.1-5.4,1.3
	c-0.9-0.4-1.8-0.8-2.7-1.2c-5.6-2.8-10.4-6.7-14.8-11c-5.1-5.1-9.6-10.8-12.5-17.5c-0.9-1.9-0.7-3.8,0.7-5.3
	c1.3-1.4,2.7-2.5,4.2-3.6c2.1-1.5,4.4-2.7,6.4-4.2c2.2-1.6,2-1.6,1-3.8c-1.6-3.4-3.8-6.4-6.1-9.4c-2.2-2.8-4.5-5.6-7.4-7.8
	c-1-0.8-2-0.9-3.2-0.3c-4.2,2-7.5,4.9-10.1,8.7c-1.1,1.7-1.7,3.5-1.6,5.5c0.2,4.7,1.2,9.2,2.7,13.7c3,8.6,7.7,16.3,13.5,23.2
	c9.1,10.9,19.9,19.7,33.1,25.2C298.1,212.3,303.7,213.7,309.9,213.9z"/>
<path class="st0" d="M13.6,40.5c1.3-2,2.4-4,3.8-6c4.5-6.3,10.2-11.2,17.2-14.8c0.8,1.6,1.7,3.2,2.5,4.8c-4.1,2.1-7.6,4.7-10.8,7.9
	c-3.2,3.2-5.8,6.7-7.9,10.8c-1.6-0.9-3.2-1.7-4.8-2.5C13.6,40.6,13.6,40.5,13.6,40.5z"/>
<path class="st0" d="M56.9,100.8C36,100.8,19,83.8,19,62.9C19,42,36,25.1,56.9,25.1c20.9,0,37.8,17,37.8,37.9
	C94.7,83.8,77.7,100.8,56.9,100.8z M56.9,95.4c17.9,0,32.4-14.5,32.5-32.3c0-18-14.5-32.6-32.4-32.6C39,30.5,24.4,45,24.4,62.9
	C24.4,80.8,38.9,95.4,56.9,95.4z"/>
<path class="st0" d="M100,40.7c-1.5,0.8-3.1,1.6-4.7,2.5C91,35,84.8,28.8,76.6,24.5c0.8-1.6,1.7-3.2,2.5-4.7
	C88.4,24.3,96.1,32.6,100,40.7z"/>
<path class="st0" d="M54.2,36c1.3,0,2.6,0,4,0c0,0.5,0.1,1.1,0.1,1.6c0.4,7.6,0.8,15.1,1.1,22.7c0,0.8,0,1.5,0.1,2.3
	c0.1,0.4,0.3,0.7,0.5,1C64.4,68.7,68.7,73.9,73,79c-0.9,0.9-1.8,1.8-2.7,2.7c-1.9-1.6-3.9-3.4-6-5.1c-4-3.4-8-6.9-12.1-10.3
	c-0.6-0.5-0.8-0.9-0.7-1.7c0.5-5.2,1-10.5,1.4-15.7C53.4,44.6,53.8,40.3,54.2,36z"/>
</svg>
