<?xml version="1.0" encoding="utf-8"?>
<!-- Generator: Adobe Illustrator 21.0.0, SVG Export Plug-In . SVG Version: 6.00 Build 0)  -->
<svg version="1.1" id="Слой_1" xmlns="http://www.w3.org/2000/svg" xmlns:xlink="http://www.w3.org/1999/xlink" x="0px" y="0px"
	 viewBox="0 0 111 118.5" style="enable-background:new 0 0 111 118.5;" xml:space="preserve">
<style type="text/css">
	.st0{fill:#FF9900;}
</style>
<path class="st0" d="M52.5,110.3c-1-1.4-1.9-2.7-2.8-4C42,94.8,34.7,83,28.4,70.6c-2.6-5.2-5-10.6-6.8-16.2C18.7,45.4,20,37,24.9,29
	c5.1-8.3,12.6-13.4,22.3-15c17.6-2.9,33.1,8.6,36.9,24.5c1.4,6,0.8,11.8-1.2,17.6c-3,8.4-7,16.3-11.4,24.1
	c-5.7,10.1-11.8,19.8-18.4,29.4C52.9,109.8,52.7,110,52.5,110.3z M52.5,103.2c0.2-0.3,0.4-0.5,0.5-0.7c5.5-8.3,10.8-16.8,15.6-25.5
	c3.8-6.8,7.4-13.7,10.1-21c1.6-4.3,2.6-8.7,2-13.5c-1.5-12.9-12.2-23.4-25.2-24.8c-11.5-1.2-22.4,4.5-28,14.7
	c-3.5,6.5-4.6,13.3-2.2,20.4c1.2,3.7,2.6,7.4,4.3,10.9c4.5,10,10.2,19.4,16,28.7C47.8,96,50.1,99.5,52.5,103.2z"/>
<path class="st0" d="M52.5,60.2c-7.9,0-14.2-6.4-14.2-14.2c0-7.8,6.4-14.2,14.2-14.2c7.8,0,14.2,6.4,14.2,14.2
	C66.7,53.8,60.3,60.2,52.5,60.2z M62.6,46c0-5.6-4.6-10.2-10.2-10.1c-5.6,0.1-10.1,4.6-10.1,10.1c0,5.6,4.5,10.2,10.1,10.2
	C58.1,56.1,62.6,51.6,62.6,46z"/>
</svg>
